# xmcd
#
# Track frame offsets:
#	150
#	14968
#	34343
#	52163
#	70305
#	87615
#	107694
#	133244
#	147845
#	172299
#	192500
#	215083
#	229188
#	246556
#
# Disc length: 3460 seconds
#
# Revision: 1
# Processed by: cddbd v1.5.1PL2 Copyright (c) Steve Scherf et al.
# Submitted via: audiograbber 1.80
#
DISCID=ef0d820e
DTITLE=Big Nick and The Gila Monsters - Live Reptiles!
DYEAR=1900
DGENRE=
TTITLE0=Strollin' with Bone
TTITLE1=300 Lbs.
TTITLE2=Rack 'em Up
TTITLE3=My Baby Pleases Me
TTITLE4=Leave Your Hat On
TTITLE5=Sleepwalk
TTITLE6=Flamenco Dancer
TTITLE7=Party Girl
TTITLE8=Let's Get Down (to Bid'ness)
TTITLE9=Wild Women
TTITLE10=High, Wide, and Handsome
TTITLE11=Kathleen
TTITLE12=Hold It!
TTITLE13=Santa Claus (Bonus Track)
EXTD=Live Music
EXTT0=
EXTT1=
EXTT2=
EXTT3=
EXTT4=
EXTT5=
EXTT6=
EXTT7=
EXTT8=
EXTT9=
EXTT10=
EXTT11=
EXTT12=
EXTT13=
PLAYORDER=
